<svg width="143" height="162" viewBox="0 0 143 162" fill="none" xmlns="http://www.w3.org/2000/svg">
<g clip-path="url(#clip0_1_6)">
<path d="M80.9835 162.04C69.8368 162.04 59.0701 160.773 48.6835 158.24C38.2968 155.707 29.7468 152.413 23.0335 148.36L37.4735 115.68C43.8068 119.353 50.8368 122.33 58.5635 124.61C66.4168 126.763 74.0168 127.84 81.3635 127.84C85.6701 127.84 89.0268 127.587 91.4335 127.08C93.9668 126.447 95.8035 125.623 96.9435 124.61C98.0835 123.47 98.6535 122.14 98.6535 120.62C98.6535 118.213 97.3235 116.313 94.6635 114.92C92.0035 113.527 88.4568 112.387 84.0235 111.5C79.7168 110.487 74.9668 109.473 69.7735 108.46C64.5801 107.32 59.3235 105.863 54.0035 104.09C48.8101 102.317 43.9968 99.9733 39.5635 97.06C35.2568 94.1467 31.7735 90.3467 29.1135 85.66C26.4535 80.8467 25.1235 74.8933 25.1235 67.8C25.1235 59.5667 27.4035 52.0933 31.9635 45.38C36.6501 38.54 43.5535 33.0933 52.6735 29.04C61.9201 24.9867 73.3835 22.96 87.0635 22.96C96.0568 22.96 104.923 23.91 113.663 25.81C122.403 27.71 130.257 30.6233 137.223 34.55L123.733 67.04C117.147 63.7467 110.75 61.2767 104.543 59.63C98.4635 57.9833 92.5101 57.16 86.6835 57.16C82.3768 57.16 78.9568 57.54 76.4235 58.3C73.8901 59.06 72.0535 60.0733 70.9135 61.34C69.9001 62.6067 69.3935 64 69.3935 65.52C69.3935 67.8 70.7235 69.6367 73.3835 71.03C76.0435 72.2967 79.5268 73.3733 83.8335 74.26C88.2668 75.1467 93.0801 76.0967 98.2735 77.11C103.593 78.1233 108.85 79.5167 114.043 81.29C119.237 83.0633 123.987 85.4067 128.293 88.32C132.727 91.2333 136.273 95.0333 138.933 99.72C141.593 104.407 142.923 110.233 142.923 117.2C142.923 125.307 140.58 132.78 135.893 139.62C131.333 146.333 124.493 151.78 115.373 155.96C106.253 160.013 94.7901 162.04 80.9835 162.04Z" fill="#D9D233"/>
<path d="M69.9835 151.04C58.8368 151.04 48.0701 149.773 37.6835 147.24C27.2968 144.707 18.7468 141.413 12.0335 137.36L26.4735 104.68C32.8068 108.353 39.8368 111.33 47.5635 113.61C55.4168 115.763 63.0168 116.84 70.3635 116.84C74.6701 116.84 78.0268 116.587 80.4335 116.08C82.9668 115.447 84.8035 114.623 85.9435 113.61C87.0835 112.47 87.6535 111.14 87.6535 109.62C87.6535 107.213 86.3235 105.313 83.6635 103.92C81.0035 102.527 77.4568 101.387 73.0235 100.5C68.7168 99.4867 63.9668 98.4733 58.7735 97.46C53.5801 96.32 48.3235 94.8633 43.0035 93.09C37.8101 91.3167 32.9968 88.9733 28.5635 86.06C24.2568 83.1467 20.7735 79.3467 18.1135 74.66C15.4535 69.8467 14.1235 63.8933 14.1235 56.8C14.1235 48.5667 16.4035 41.0933 20.9635 34.38C25.6501 27.54 32.5535 22.0933 41.6735 18.04C50.9201 13.9867 62.3835 11.96 76.0635 11.96C85.0568 11.96 93.9235 12.91 102.663 14.81C111.403 16.71 119.257 19.6233 126.223 23.55L112.733 56.04C106.147 52.7467 99.7501 50.2767 93.5435 48.63C87.4635 46.9833 81.5101 46.16 75.6835 46.16C71.3768 46.16 67.9568 46.54 65.4235 47.3C62.8901 48.06 61.0535 49.0733 59.9135 50.34C58.9001 51.6067 58.3935 53 58.3935 54.52C58.3935 56.8 59.7235 58.6367 62.3835 60.03C65.0435 61.2967 68.5268 62.3733 72.8335 63.26C77.2668 64.1467 82.0801 65.0967 87.2735 66.11C92.5935 67.1233 97.8501 68.5167 103.043 70.29C108.237 72.0633 112.987 74.4067 117.293 77.32C121.727 80.2333 125.273 84.0333 127.933 88.72C130.593 93.4067 131.923 99.2333 131.923 106.2C131.923 114.307 129.58 121.78 124.893 128.62C120.333 135.333 113.493 140.78 104.373 144.96C95.2535 149.013 83.7901 151.04 69.9835 151.04Z" fill="#5533D9"/>
<path d="M57.9835 140.04C46.8368 140.04 36.0701 138.773 25.6835 136.24C15.2968 133.707 6.74681 130.413 0.0334766 126.36L14.4735 93.68C20.8068 97.3533 27.8368 100.33 35.5635 102.61C43.4168 104.763 51.0168 105.84 58.3635 105.84C62.6701 105.84 66.0268 105.587 68.4335 105.08C70.9668 104.447 72.8035 103.623 73.9435 102.61C75.0835 101.47 75.6535 100.14 75.6535 98.62C75.6535 96.2133 74.3235 94.3133 71.6635 92.92C69.0035 91.5267 65.4568 90.3867 61.0235 89.5C56.7168 88.4867 51.9668 87.4733 46.7735 86.46C41.5801 85.32 36.3235 83.8633 31.0035 82.09C25.8101 80.3167 20.9968 77.9733 16.5635 75.06C12.2568 72.1467 8.77348 68.3467 6.11348 63.66C3.45348 58.8467 2.12348 52.8933 2.12348 45.8C2.12348 37.5667 4.40348 30.0933 8.96348 23.38C13.6501 16.54 20.5535 11.0933 29.6735 7.04C38.9201 2.98666 50.3835 0.959996 64.0635 0.959996C73.0568 0.959996 81.9235 1.91 90.6635 3.80999C99.4035 5.70999 107.257 8.62333 114.223 12.55L100.733 45.04C94.1468 41.7467 87.7501 39.2767 81.5435 37.63C75.4635 35.9833 69.5101 35.16 63.6835 35.16C59.3768 35.16 55.9568 35.54 53.4235 36.3C50.8901 37.06 49.0535 38.0733 47.9135 39.34C46.9001 40.6067 46.3935 42 46.3935 43.52C46.3935 45.8 47.7235 47.6367 50.3835 49.03C53.0435 50.2967 56.5268 51.3733 60.8335 52.26C65.2668 53.1467 70.0801 54.0967 75.2735 55.11C80.5935 56.1233 85.8501 57.5167 91.0435 59.29C96.2368 61.0633 100.987 63.4067 105.293 66.32C109.727 69.2333 113.273 73.0333 115.933 77.72C118.593 82.4067 119.923 88.2333 119.923 95.2C119.923 103.307 117.58 110.78 112.893 117.62C108.333 124.333 101.493 129.78 92.3735 133.96C83.2535 138.013 71.7901 140.04 57.9835 140.04Z" fill="black"/>
</g>
<defs>
<clipPath id="clip0_1_6">
<rect width="143" height="162" fill="white"/>
</clipPath>
</defs>
</svg>
