<svg width="536" height="202" viewBox="0 0 536 202" fill="none" xmlns="http://www.w3.org/2000/svg">
<g clip-path="url(#clip0_1_2)">
<path d="M81.0255 166.04C69.8788 166.04 59.1121 164.773 48.7255 162.24C38.3388 159.707 29.7888 156.413 23.0755 152.36L37.5155 119.68C43.8488 123.353 50.8788 126.33 58.6055 128.61C66.4588 130.763 74.0588 131.84 81.4055 131.84C85.7121 131.84 89.0688 131.587 91.4755 131.08C94.0088 130.447 95.8455 129.623 96.9855 128.61C98.1255 127.47 98.6955 126.14 98.6955 124.62C98.6955 122.213 97.3655 120.313 94.7055 118.92C92.0455 117.527 88.4988 116.387 84.0655 115.5C79.7588 114.487 75.0088 113.473 69.8155 112.46C64.6221 111.32 59.3655 109.863 54.0455 108.09C48.8521 106.317 44.0388 103.973 39.6055 101.06C35.2988 98.1467 31.8155 94.3467 29.1555 89.66C26.4955 84.8467 25.1655 78.8933 25.1655 71.8C25.1655 63.5667 27.4455 56.0933 32.0055 49.38C36.6921 42.54 43.5955 37.0933 52.7155 33.04C61.9621 28.9867 73.4255 26.96 87.1055 26.96C96.0988 26.96 104.965 27.91 113.705 29.81C122.445 31.71 130.299 34.6233 137.265 38.55L123.775 71.04C117.189 67.7467 110.792 65.2767 104.585 63.63C98.5055 61.9833 92.5521 61.16 86.7255 61.16C82.4188 61.16 78.9988 61.54 76.4655 62.3C73.9321 63.06 72.0955 64.0733 70.9555 65.34C69.9421 66.6067 69.4355 68 69.4355 69.52C69.4355 71.8 70.7655 73.6367 73.4255 75.03C76.0855 76.2967 79.5688 77.3733 83.8755 78.26C88.3088 79.1467 93.1221 80.0967 98.3155 81.11C103.635 82.1233 108.892 83.5167 114.085 85.29C119.279 87.0633 124.029 89.4067 128.335 92.32C132.769 95.2333 136.315 99.0333 138.975 103.72C141.635 108.407 142.965 114.233 142.965 121.2C142.965 129.307 140.622 136.78 135.935 143.62C131.375 150.333 124.535 155.78 115.415 159.96C106.295 164.013 94.8321 166.04 81.0255 166.04ZM205.139 164.9C190.825 164.9 179.679 161.48 171.699 154.64C163.719 147.673 159.729 137.033 159.729 122.72V35.7H202.669V122.34C202.669 125.507 203.492 127.977 205.139 129.75C206.912 131.523 209.065 132.41 211.599 132.41C215.272 132.41 218.502 131.46 221.289 129.56L231.549 159.39C228.255 161.29 224.265 162.683 219.579 163.57C215.019 164.457 210.205 164.9 205.139 164.9ZM145.479 96.12V64.77H223.949V96.12H145.479ZM263.316 201.76C257.616 201.76 251.789 200.873 245.836 199.1C240.009 197.453 235.322 195.237 231.776 192.45L246.026 163C248.179 164.647 250.586 165.977 253.246 166.99C256.032 168.003 258.692 168.51 261.226 168.51C265.026 168.51 267.939 167.687 269.966 166.04C271.992 164.52 273.639 162.177 274.906 159.01L279.276 147.99L282.316 143.81L315.566 59.07H356.226L313.476 165.09C309.676 174.59 305.242 182 300.176 187.32C295.236 192.64 289.662 196.377 283.456 198.53C277.376 200.683 270.662 201.76 263.316 201.76ZM273.386 167.75L228.166 59.07H272.246L303.406 140.01L273.386 167.75ZM362.791 163V22.02H405.731V163H362.791ZM482.144 164.9C469.477 164.9 458.394 162.557 448.894 157.87C439.52 153.183 432.237 146.787 427.044 138.68C421.85 130.447 419.254 121.2 419.254 110.94C419.254 100.427 421.787 91.1167 426.854 83.01C432.047 74.9033 439.077 68.57 447.944 64.01C456.937 59.45 467.007 57.17 478.154 57.17C488.414 57.17 497.85 59.1967 506.464 63.25C515.204 67.3033 522.17 73.32 527.364 81.3C532.684 89.28 535.344 99.16 535.344 110.94C535.344 112.46 535.28 114.17 535.154 116.07C535.027 117.843 534.9 119.49 534.774 121.01H454.784V100.3H511.974L495.824 105.81C495.824 101.757 495.064 98.3367 493.544 95.55C492.15 92.6367 490.187 90.42 487.654 88.9C485.12 87.2533 482.08 86.43 478.534 86.43C474.987 86.43 471.884 87.2533 469.224 88.9C466.69 90.42 464.727 92.6367 463.334 95.55C461.94 98.3367 461.244 101.757 461.244 105.81V112.27C461.244 116.703 462.13 120.503 463.904 123.67C465.677 126.837 468.21 129.243 471.504 130.89C474.797 132.41 478.787 133.17 483.474 133.17C488.287 133.17 492.214 132.537 495.254 131.27C498.42 130.003 501.714 128.103 505.134 125.57L527.554 148.18C522.487 153.627 516.217 157.807 508.744 160.72C501.397 163.507 492.53 164.9 482.144 164.9Z" fill="#D9D233"/>
<path d="M70.0255 155.04C58.8788 155.04 48.1121 153.773 37.7255 151.24C27.3388 148.707 18.7888 145.413 12.0755 141.36L26.5155 108.68C32.8488 112.353 39.8788 115.33 47.6055 117.61C55.4588 119.763 63.0588 120.84 70.4055 120.84C74.7121 120.84 78.0688 120.587 80.4755 120.08C83.0088 119.447 84.8455 118.623 85.9855 117.61C87.1255 116.47 87.6955 115.14 87.6955 113.62C87.6955 111.213 86.3655 109.313 83.7055 107.92C81.0455 106.527 77.4988 105.387 73.0655 104.5C68.7588 103.487 64.0088 102.473 58.8155 101.46C53.6221 100.32 48.3655 98.8633 43.0455 97.09C37.8521 95.3167 33.0388 92.9733 28.6055 90.06C24.2988 87.1467 20.8155 83.3467 18.1555 78.66C15.4955 73.8467 14.1655 67.8933 14.1655 60.8C14.1655 52.5667 16.4455 45.0933 21.0055 38.38C25.6921 31.54 32.5955 26.0933 41.7155 22.04C50.9621 17.9867 62.4255 15.96 76.1055 15.96C85.0988 15.96 93.9655 16.91 102.705 18.81C111.445 20.71 119.299 23.6233 126.265 27.55L112.775 60.04C106.189 56.7467 99.7921 54.2767 93.5855 52.63C87.5055 50.9833 81.5521 50.16 75.7255 50.16C71.4188 50.16 67.9988 50.54 65.4655 51.3C62.9321 52.06 61.0955 53.0733 59.9555 54.34C58.9421 55.6067 58.4355 57 58.4355 58.52C58.4355 60.8 59.7655 62.6367 62.4255 64.03C65.0855 65.2967 68.5688 66.3733 72.8755 67.26C77.3088 68.1467 82.1221 69.0967 87.3155 70.11C92.6355 71.1233 97.8921 72.5167 103.085 74.29C108.279 76.0633 113.029 78.4067 117.335 81.32C121.769 84.2333 125.315 88.0333 127.975 92.72C130.635 97.4067 131.965 103.233 131.965 110.2C131.965 118.307 129.622 125.78 124.935 132.62C120.375 139.333 113.535 144.78 104.415 148.96C95.2955 153.013 83.8321 155.04 70.0255 155.04ZM194.139 153.9C179.825 153.9 168.679 150.48 160.699 143.64C152.719 136.673 148.729 126.033 148.729 111.72V24.7H191.669V111.34C191.669 114.507 192.492 116.977 194.139 118.75C195.912 120.523 198.065 121.41 200.599 121.41C204.272 121.41 207.502 120.46 210.289 118.56L220.549 148.39C217.255 150.29 213.265 151.683 208.579 152.57C204.019 153.457 199.205 153.9 194.139 153.9ZM134.479 85.12V53.77H212.949V85.12H134.479ZM252.316 190.76C246.616 190.76 240.789 189.873 234.836 188.1C229.009 186.453 224.322 184.237 220.776 181.45L235.026 152C237.179 153.647 239.586 154.977 242.246 155.99C245.032 157.003 247.692 157.51 250.226 157.51C254.026 157.51 256.939 156.687 258.966 155.04C260.992 153.52 262.639 151.177 263.906 148.01L268.276 136.99L271.316 132.81L304.566 48.07H345.226L302.476 154.09C298.676 163.59 294.242 171 289.176 176.32C284.236 181.64 278.662 185.377 272.456 187.53C266.376 189.683 259.662 190.76 252.316 190.76ZM262.386 156.75L217.166 48.07H261.246L292.406 129.01L262.386 156.75ZM351.791 152V11.02H394.731V152H351.791ZM471.144 153.9C458.477 153.9 447.394 151.557 437.894 146.87C428.52 142.183 421.237 135.787 416.044 127.68C410.85 119.447 408.254 110.2 408.254 99.94C408.254 89.4267 410.787 80.1167 415.854 72.01C421.047 63.9033 428.077 57.57 436.944 53.01C445.937 48.45 456.007 46.17 467.154 46.17C477.414 46.17 486.85 48.1967 495.464 52.25C504.204 56.3033 511.17 62.32 516.364 70.3C521.684 78.28 524.344 88.16 524.344 99.94C524.344 101.46 524.28 103.17 524.154 105.07C524.027 106.843 523.9 108.49 523.774 110.01H443.784V89.3H500.974L484.824 94.81C484.824 90.7567 484.064 87.3367 482.544 84.55C481.15 81.6367 479.187 79.42 476.654 77.9C474.12 76.2533 471.08 75.43 467.534 75.43C463.987 75.43 460.884 76.2533 458.224 77.9C455.69 79.42 453.727 81.6367 452.334 84.55C450.94 87.3367 450.244 90.7567 450.244 94.81V101.27C450.244 105.703 451.13 109.503 452.904 112.67C454.677 115.837 457.21 118.243 460.504 119.89C463.797 121.41 467.787 122.17 472.474 122.17C477.287 122.17 481.214 121.537 484.254 120.27C487.42 119.003 490.714 117.103 494.134 114.57L516.554 137.18C511.487 142.627 505.217 146.807 497.744 149.72C490.397 152.507 481.53 153.9 471.144 153.9Z" fill="#5533D9"/>
<path d="M58.0255 144.04C46.8788 144.04 36.1121 142.773 25.7255 140.24C15.3388 137.707 6.7888 134.413 0.0754688 130.36L14.5155 97.68C20.8488 101.353 27.8788 104.33 35.6055 106.61C43.4588 108.763 51.0588 109.84 58.4055 109.84C62.7121 109.84 66.0688 109.587 68.4755 109.08C71.0088 108.447 72.8455 107.623 73.9855 106.61C75.1255 105.47 75.6955 104.14 75.6955 102.62C75.6955 100.213 74.3655 98.3133 71.7055 96.92C69.0455 95.5267 65.4988 94.3867 61.0655 93.5C56.7588 92.4867 52.0088 91.4733 46.8155 90.46C41.6221 89.32 36.3655 87.8633 31.0455 86.09C25.8521 84.3167 21.0388 81.9733 16.6055 79.06C12.2988 76.1467 8.81547 72.3467 6.15547 67.66C3.49547 62.8467 2.16547 56.8933 2.16547 49.8C2.16547 41.5667 4.44547 34.0933 9.00547 27.38C13.6921 20.54 20.5955 15.0933 29.7155 11.04C38.9621 6.98666 50.4255 4.96 64.1055 4.96C73.0988 4.96 81.9655 5.91 90.7055 7.80999C99.4455 9.70999 107.299 12.6233 114.265 16.55L100.775 49.04C94.1888 45.7467 87.7921 43.2767 81.5855 41.63C75.5055 39.9833 69.5521 39.16 63.7255 39.16C59.4188 39.16 55.9988 39.54 53.4655 40.3C50.9321 41.06 49.0955 42.0733 47.9555 43.34C46.9421 44.6067 46.4355 46 46.4355 47.52C46.4355 49.8 47.7655 51.6367 50.4255 53.03C53.0855 54.2967 56.5688 55.3733 60.8755 56.26C65.3088 57.1467 70.1221 58.0967 75.3155 59.11C80.6355 60.1233 85.8921 61.5167 91.0855 63.29C96.2788 65.0633 101.029 67.4067 105.335 70.32C109.769 73.2333 113.315 77.0333 115.975 81.72C118.635 86.4067 119.965 92.2333 119.965 99.2C119.965 107.307 117.622 114.78 112.935 121.62C108.375 128.333 101.535 133.78 92.4155 137.96C83.2955 142.013 71.8321 144.04 58.0255 144.04ZM182.139 142.9C167.825 142.9 156.679 139.48 148.699 132.64C140.719 125.673 136.729 115.033 136.729 100.72V13.7H179.669V100.34C179.669 103.507 180.492 105.977 182.139 107.75C183.912 109.523 186.065 110.41 188.599 110.41C192.272 110.41 195.502 109.46 198.289 107.56L208.549 137.39C205.255 139.29 201.265 140.683 196.579 141.57C192.019 142.457 187.205 142.9 182.139 142.9ZM122.479 74.12V42.77H200.949V74.12H122.479ZM240.316 179.76C234.616 179.76 228.789 178.873 222.836 177.1C217.009 175.453 212.322 173.237 208.776 170.45L223.026 141C225.179 142.647 227.586 143.977 230.246 144.99C233.032 146.003 235.692 146.51 238.226 146.51C242.026 146.51 244.939 145.687 246.966 144.04C248.992 142.52 250.639 140.177 251.906 137.01L256.276 125.99L259.316 121.81L292.566 37.07H333.226L290.476 143.09C286.676 152.59 282.242 160 277.176 165.32C272.236 170.64 266.662 174.377 260.456 176.53C254.376 178.683 247.662 179.76 240.316 179.76ZM250.386 145.75L205.166 37.07H249.246L280.406 118.01L250.386 145.75ZM339.791 141V0.0199918H382.731V141H339.791ZM459.144 142.9C446.477 142.9 435.394 140.557 425.894 135.87C416.52 131.183 409.237 124.787 404.044 116.68C398.85 108.447 396.254 99.2 396.254 88.94C396.254 78.4267 398.787 69.1167 403.854 61.01C409.047 52.9033 416.077 46.57 424.944 42.01C433.937 37.45 444.007 35.17 455.154 35.17C465.414 35.17 474.85 37.1967 483.464 41.25C492.204 45.3033 499.17 51.32 504.364 59.3C509.684 67.28 512.344 77.16 512.344 88.94C512.344 90.46 512.28 92.17 512.154 94.07C512.027 95.8433 511.9 97.49 511.774 99.01H431.784V78.3H488.974L472.824 83.81C472.824 79.7567 472.064 76.3367 470.544 73.55C469.15 70.6367 467.187 68.42 464.654 66.9C462.12 65.2533 459.08 64.43 455.534 64.43C451.987 64.43 448.884 65.2533 446.224 66.9C443.69 68.42 441.727 70.6367 440.334 73.55C438.94 76.3367 438.244 79.7567 438.244 83.81V90.27C438.244 94.7033 439.13 98.5033 440.904 101.67C442.677 104.837 445.21 107.243 448.504 108.89C451.797 110.41 455.787 111.17 460.474 111.17C465.287 111.17 469.214 110.537 472.254 109.27C475.42 108.003 478.714 106.103 482.134 103.57L504.554 126.18C499.487 131.627 493.217 135.807 485.744 138.72C478.397 141.507 469.53 142.9 459.144 142.9Z" fill="black"/>
</g>
<defs>
<clipPath id="clip0_1_2">
<rect width="536" height="202" fill="white"/>
</clipPath>
</defs>
</svg>
