<?xml version="1.0" standalone="no"?>
<!DOCTYPE svg PUBLIC "-//W3C//DTD SVG 20010904//EN"
 "http://www.w3.org/TR/2001/REC-SVG-20010904/DTD/svg10.dtd">
<svg version="1.0" xmlns="http://www.w3.org/2000/svg"
 width="648.000000pt" height="648.000000pt" viewBox="0 0 648.000000 648.000000"
 preserveAspectRatio="xMidYMid meet">
<metadata>
Created by potrace 1.14, written by Peter Selinger 2001-2017
</metadata>
<g transform="translate(0.000000,648.000000) scale(0.100000,-0.100000)"
fill="#000000" stroke="none">
<path d="M2795 6442 c-2 -2 -52 -5 -112 -8 -59 -2 -126 -6 -148 -8 -22 -3 -67
-7 -100 -11 -33 -3 -73 -8 -90 -10 -16 -3 -48 -7 -70 -10 -183 -26 -420 -86
-590 -150 -89 -34 -288 -126 -340 -158 -10 -7 -58 -37 -105 -67 -47 -30 -89
-57 -94 -59 -5 -2 -16 -11 -26 -20 -9 -9 -37 -32 -61 -51 -60 -47 -209 -196
-245 -245 -16 -22 -32 -42 -35 -45 -21 -17 -114 -171 -157 -260 -46 -94 -103
-254 -116 -320 -3 -14 -10 -50 -16 -80 -15 -74 -24 -184 -23 -305 0 -131 8
-223 28 -325 3 -14 8 -38 10 -55 24 -143 147 -398 240 -499 14 -15 25 -30 25
-34 0 -19 196 -192 286 -251 85 -57 113 -82 162 -147 77 -102 183 -202 296
-279 39 -27 74 -63 108 -112 28 -40 54 -73 59 -73 5 0 9 -6 9 -12 0 -7 41 -53
92 -101 76 -73 170 -143 303 -225 26 -15 158 -86 165 -87 3 -1 32 -14 65 -29
33 -15 103 -44 155 -63 52 -19 102 -37 110 -40 8 -3 26 -8 40 -10 13 -2 29 -8
35 -13 5 -4 28 -12 50 -16 31 -5 35 -9 20 -14 -11 -4 -40 -6 -65 -4 -25 2 -85
5 -135 8 -94 5 -189 14 -240 22 -16 3 -43 7 -60 9 -31 3 -52 7 -145 25 -92 19
-109 23 -175 40 -22 6 -51 13 -65 16 -60 12 -355 113 -437 149 -21 9 -47 20
-58 25 -11 4 -103 48 -204 98 -102 50 -186 90 -186 89 -5 -7 -150 -343 -151
-347 0 -3 -17 -40 -37 -83 -20 -43 -37 -80 -37 -82 0 -2 -17 -41 -39 -87 -21
-46 -41 -93 -45 -105 -4 -12 -22 -53 -41 -92 -19 -40 -35 -74 -35 -76 0 -3 -9
-24 -20 -48 -11 -23 -53 -118 -94 -212 l-74 -169 31 -20 c37 -22 226 -117 277
-139 19 -8 55 -24 80 -34 25 -11 68 -28 95 -37 81 -27 80 -22 36 -121 l-40
-89 32 -20 c69 -41 260 -134 377 -181 87 -35 110 -46 110 -54 0 -5 -18 -48
-39 -97 l-40 -88 32 -20 c66 -40 286 -145 392 -186 61 -23 125 -49 143 -56 18
-8 41 -14 50 -14 10 0 22 -4 28 -8 5 -5 29 -14 54 -21 25 -8 59 -18 75 -23 17
-6 46 -14 65 -18 19 -5 62 -16 95 -25 33 -9 67 -18 75 -20 8 -2 33 -8 55 -13
22 -6 51 -13 65 -16 14 -3 36 -7 50 -10 14 -3 36 -8 50 -11 37 -8 63 -13 106
-19 22 -4 46 -8 54 -11 8 -2 35 -7 60 -10 25 -3 56 -7 70 -9 52 -9 153 -22
245 -31 170 -16 252 -19 540 -20 286 0 401 5 515 19 19 2 60 7 90 10 50 6 135
19 200 32 14 3 34 6 45 8 65 10 260 63 343 93 53 19 102 35 107 37 68 20 302
143 419 220 138 92 199 142 305 247 117 115 267 327 311 439 7 19 17 40 22 46
23 31 96 262 105 334 2 19 6 42 9 50 24 67 23 438 0 530 -4 14 -8 41 -11 60
-9 82 -61 233 -114 334 -104 195 -250 355 -443 486 -20 14 -55 52 -77 85 -96
143 -227 268 -392 374 -45 29 -85 66 -125 117 -88 113 -139 162 -291 281 -15
13 -34 23 -40 23 -7 0 -13 4 -13 8 0 5 -12 15 -27 22 -16 8 -35 20 -43 26 -29
24 -322 169 -362 180 -5 1 -10 3 -13 4 -3 1 -8 3 -12 4 -5 1 -25 10 -47 19
-21 9 -47 17 -57 17 -10 0 -20 4 -23 9 -3 5 -18 12 -33 15 -66 16 -173 50
-173 56 0 13 313 -5 455 -26 138 -21 453 -97 510 -123 19 -9 64 -24 75 -26 3
0 19 -6 35 -12 17 -7 71 -28 120 -47 99 -38 161 -65 274 -119 72 -34 91 -38
91 -16 0 6 8 29 19 52 47 107 61 141 61 153 0 8 4 14 8 14 5 0 9 6 9 13 1 18
66 171 76 178 5 3 8 9 7 13 -2 7 29 88 61 161 25 57 118 280 141 340 11 27 23
54 26 60 4 5 7 16 8 23 1 7 12 31 23 52 11 22 18 40 15 40 -3 0 1 12 9 28 16
30 29 59 51 115 14 35 14 38 -2 44 -9 4 -19 9 -22 12 -13 16 -379 181 -399
181 -5 0 -27 8 -48 18 -29 13 -38 21 -33 32 4 8 13 29 20 45 7 17 19 42 27 58
8 15 11 27 7 27 -3 0 -1 7 6 15 7 8 9 15 4 15 -5 0 -2 5 6 10 20 13 12 19
-105 78 -151 75 -380 172 -409 172 -6 0 -17 4 -24 8 -12 8 -6 32 28 107 5 11
16 37 24 58 l15 37 -72 37 c-126 65 -198 97 -209 95 -5 -1 -8 2 -8 8 0 5 -8
10 -18 10 -10 0 -22 4 -28 8 -13 12 -277 107 -319 115 -11 2 -27 7 -35 10 -14
6 -149 41 -196 52 -83 18 -266 54 -294 58 -19 3 -35 6 -35 7 0 1 -11 3 -25 4
-27 3 -121 15 -160 21 -25 4 -119 13 -200 20 -133 12 -548 24 -555 17z"/>
</g>
</svg>
